<?xml version="1.0" encoding="UTF-8"?><svg id="Layer_1" xmlns="http://www.w3.org/2000/svg" viewBox="0 0 414.8 383.1"><defs><style>.cls-1{fill:#0a5bab;stroke-width:0px;}</style></defs><path class="cls-1" d="M101.57,124.42c-12.39,21.15-18.65,44.35-18.65,69.42,0,25.08,6.26,48.27,18.65,69.42,12.37,21.16,29.31,38.08,50.46,50.47,21.16,12.37,44.35,18.64,69.42,18.64,25.08,0,48.27-6.26,69.42-18.64,21.16-12.39,38.08-29.31,50.47-50.47,12.37-21.15,18.65-44.35,18.65-69.42,0-25.08-6.28-48.27-18.65-69.42-12.39-21.16-29.31-38.08-50.47-50.47-21.15-12.37-44.35-18.65-69.42-18.65-25.08,0-48.26,6.28-69.42,18.65-21.15,12.39-38.08,29.31-50.46,50.47ZM276.77,98.41c16.93,9.86,30.26,23.18,40.13,40.12,9.87,16.92,14.89,35.25,14.89,55.32,0,20.07-5.01,38.4-14.89,55.32-9.87,16.93-23.2,30.24-40.13,40.12-16.92,9.87-35.25,14.89-55.32,14.89-20.05,0-38.39-5.01-55.32-14.89-16.92-9.87-30.24-23.18-40.12-40.12-9.87-16.92-14.89-35.25-14.89-55.32,0-20.07,5.01-38.4,14.89-55.32,9.87-16.93,23.2-30.26,40.12-40.12,16.93-9.87,35.27-14.9,55.32-14.9,20.07,0,38.4,5.03,55.32,14.9Z"/><path class="cls-1" d="M137.61,145.1c-8.61,14.74-13.01,31.02-13.01,48.74,0,17.7,4.39,34,13.01,48.74,8.62,14.74,20.38,26.48,35.1,35.1,14.74,8.63,31.04,13.01,48.74,13.01,17.72,0,34.02-4.38,48.74-13.01,14.74-8.62,26.49-20.37,35.1-35.1,8.62-14.74,13.01-31.04,13.01-48.74,0-17.72-4.38-34.01-13.01-48.74-8.61-14.74-20.37-26.48-35.1-35.1-14.72-8.62-31.02-13.01-48.74-13.01-17.7,0-34,4.38-48.74,13.01-14.72,8.62-26.48,20.37-35.1,35.1ZM256.09,134.45c10.51,6.11,18.82,14.42,24.93,24.91,6.11,10.51,9.08,22.1,9.08,34.49,0,12.37-2.97,23.98-9.08,34.47-6.11,10.51-14.42,18.82-24.93,24.93-10.49,6.11-22.1,9.24-34.47,9.24-12.39,0-23.98-2.98-34.49-9.24-10.49-6.11-18.8-14.42-24.91-24.93-6.11-10.49-9.09-22.1-9.09-34.47,0-12.39,2.98-23.98,9.09-34.49,6.11-10.49,14.42-18.8,24.91-24.91,10.51-6.11,22.1-9.09,34.49-9.09,12.37,0,23.98,3.13,34.47,9.09Z"/><path class="cls-1" d="M179.61,193.85c0,11.59,4.08,21.47,12.24,29.62,8.14,8.14,18.02,12.37,29.77,12.37,11.76,0,21.47-4.08,29.61-12.37,8.16-8.16,12.39-18.18,12.39-29.62,0-11.44-4.08-21.78-12.39-29.77-8.14-8.16-18.02-12.22-29.61-12.22-11.61,0-21.63,4.07-29.77,12.22-8.16,8.14-12.24,18.02-12.24,29.77Z"/></svg>